# xmcd CD database file
#
# Track frame offsets:
#	150
#	12768
#	23509
#	41726
#	58436
#	75105
#	91900
#	106453
#	128012
#	142248
#	158637
#	171976
#	187744
#	205199
#	214974
#	230283
#	250649
#	265951
#	283255
#	308445
#	333353
#
# Disc length: 4645 seconds
#
# Revision: 0
# Processed by: cddbd v1.5.2PL0 Copyright (c) Steve Scherf et al.
# Submitted via: CDex 1.51
#
DISCID=1a122315
DTITLE=Emmylou Harris - Songbird: Rare Tracks And Forgotten Gems [CD1)
DYEAR=2007
DGENRE=Country
TTITLE0=Clocks (Alternate Version)
TTITLE1=The Angels Rejoiced Last Night (with Gram Parsons)
TTITLE2=The Old Country Baptizing (with Gram Parsons and The Fallen Angels)
TTITLE3=Coat Of Many Colors
TTITLE4=For No One
TTITLE5=Ooh Las Vegas
TTITLE6=Satan's Jewel Crown
TTITLE7=Tulsa Queen
TTITLE8=My Songbird
TTITLE9=Green Rolling Hills
TTITLE10=One Paper Kid (with Willie Nelson)
TTITLE11=Sorrow In The Wind
TTITLE12=Rough And Rocky
TTITLE13=Jordan (with Johnny Cash)
TTITLE14=Darkest Hour Is Just Before Dawn
TTITLE15=Ashes By Now (with Dr. John)
TTITLE16=How High The Moon
TTITLE17=Spanish Johnny (with Waylon Jennings)
TTITLE18=The Last Cheaters Waltz
TTITLE19=Racing In The Streets
TTITLE20=Like An Old Fashioned Waltz
EXTD=YEAR: 2007
EXTT0=
EXTT1=
EXTT2=
EXTT3=
EXTT4=
EXTT5=
EXTT6=
EXTT7=
EXTT8=
EXTT9=
EXTT10=
EXTT11=
EXTT12=
EXTT13=
EXTT14=
EXTT15=
EXTT16=
EXTT17=
EXTT18=
EXTT19=
EXTT20=
PLAYORDER=
